# xmcd CD database file
# Copyright (C) 1997 Ti Kan
#
# Track frame offsets:
#  187
#  13455
#  27072
#  38852
#  53840
#  70272
#  83442
#  95632
#  109172
#  124420
#
# Disc length: 1965 seconds
#
# Revision: 3
# Processed by: cddbd v1.5.1PL2 Copyright (c) Steve Scherf et al.
# Submitted via: Gronk 1.4
#
DISCID=8207ab0a
DTITLE=Jann Browne - It Only Hurts When I Laugh
DYEAR=1900
DGENRE=country
TTITLE0=Better Love Next Time
TTITLE1=I Wish It Would Rain
TTITLE2=It Only Hurts When I Laugh
TTITLE3=I Knew Enough to Fall in Love With You
TTITLE4=Blue Heart in Memphis
TTITLE5=My Shoes Keep Walking Back to You
TTITLE6=Who's Gonna Be Your Next Love
TTITLE7=I Don't Do Floors
TTITLE8=Where the Sidewalk Ends
TTITLE9=Where Nobody Knows My Name
EXTD=
EXTT0=
EXTT1=
EXTT2=
EXTT3=
EXTT4=
EXTT5=
EXTT6=
EXTT7=
EXTT8=
EXTT9=
PLAYORDER=
